<svg xmlns="http://www.w3.org/2000/svg" xmlns:xlink="http://www.w3.org/1999/xlink" viewBox="0 0 169.046 166"><defs><style>.a{fill:url(#a);}.b{fill:#fff;stroke:#2dadd8;stroke-width:3px;}.c{stroke:none;}.d{fill:none;}</style><linearGradient id="a" x1="0.5" y1="0.596" x2="0.5" y2="1" gradientUnits="objectBoundingBox"><stop offset="0" stop-color="#56f28c"/><stop offset="1" stop-color="#259fe8"/></linearGradient></defs><g transform="translate(-718.954 -1349)"><path class="a" d="M142.692,29.548A80.177,80.177,0,1,0,163.535,106.2H142.692A60.094,60.094,0,1,1,86.078,26.041a59.269,59.269,0,0,1,42.286,17.836L96.1,76.142H166.24V6Z" transform="translate(712.939 1348.675)"/><g class="b" transform="translate(869 1349)"><circle class="c" cx="8.5" cy="8.5" r="8.5"/><circle class="d" cx="8.5" cy="8.5" r="7"/></g><g class="b" transform="translate(803 1414)"><circle class="c" cx="8.5" cy="8.5" r="8.5"/><circle class="d" cx="8.5" cy="8.5" r="7"/></g><g class="b" transform="translate(871 1416)"><circle class="c" cx="8.5" cy="8.5" r="8.5"/><circle class="d" cx="8.5" cy="8.5" r="7"/></g></g></svg>