<svg xmlns="http://www.w3.org/2000/svg" xmlns:xlink="http://www.w3.org/1999/xlink" width="46.84" height="37.472" viewBox="0 0 46.84 37.472"><defs><style>.a{fill:url(#a);}</style><linearGradient id="a" x1="0.5" x2="0.5" y2="1" gradientUnits="objectBoundingBox"><stop offset="0" stop-color="#d038a8"/><stop offset="1" stop-color="#f71ba3"/></linearGradient></defs><path class="a" d="M44.156,8.684H25.42L20.736,4H6.684A4.678,4.678,0,0,0,2.023,8.684L2,36.788a4.7,4.7,0,0,0,4.684,4.684H44.156a4.7,4.7,0,0,0,4.684-4.684V13.368A4.7,4.7,0,0,0,44.156,8.684ZM32.446,15.71a4.684,4.684,0,1,1-4.684,4.684A4.7,4.7,0,0,1,32.446,15.71Zm9.368,18.736H23.078V32.1c0-3.115,6.253-4.684,9.368-4.684s9.368,1.569,9.368,4.684Z" transform="translate(-2 -4)"/></svg>