<svg xmlns="http://www.w3.org/2000/svg" width="52" height="52" viewBox="0 0 52 52">
  <g id="Circle_Button_" data-name="Circle Button " transform="translate(0 0.495)">
    <rect id="Area" width="52" height="52" rx="26" transform="translate(0 -0.495)" fill="#34b9ca"/>
    <g id="Icon_" data-name="Icon " transform="translate(14 16)">
      <g id="Icon" transform="translate(1.718 3.363)">
        <path id="Path" d="M19.936,5.48a2.465,2.465,0,0,0-1.72-1.774,63.877,63.877,0,0,0-7.627-.372s-6.1,0-7.627.409a2.464,2.464,0,0,0-1.72,1.773,25.7,25.7,0,0,0-.409,4.692,25.682,25.682,0,0,0,.409,4.726,2.465,2.465,0,0,0,1.72,1.7c1.526.409,7.627.409,7.627.409s6.1,0,7.627-.409a2.464,2.464,0,0,0,1.72-1.773,25.68,25.68,0,0,0,.409-4.656A25.693,25.693,0,0,0,19.936,5.48Z" transform="translate(-0.833 -3.333)" fill="#fff"/>
        <path id="Path-2" data-name="Path" d="M8.125,12.867l5.1-2.9-5.1-2.9Z" transform="translate(-0.364 -3.093)" fill="#34b9ca"/>
      </g>
    </g>
  </g>
</svg>
