<svg xmlns="http://www.w3.org/2000/svg" xmlns:xlink="http://www.w3.org/1999/xlink" viewBox="0 0 95.479 94.761"><defs><style>.a{fill:url(#a);}.b{clip-path:url(#b);}</style><linearGradient id="a" x1="0.5" x2="0.5" y2="1" gradientUnits="objectBoundingBox"><stop offset="0" stop-color="#fc139d"/><stop offset="1" stop-color="#e943c0"/></linearGradient><clipPath id="b"><rect class="a" width="95.479" height="94.761" transform="translate(1.236 -3.804)"/></clipPath></defs><g class="b" transform="translate(-1.236 3.804)"><path class="a" d="M9.918,0A9.918,9.918,0,1,1,0,9.918,9.916,9.916,0,0,1,9.918,0" transform="translate(7.934 27.41)"/><path class="a" d="M9.918,0A9.918,9.918,0,1,1,0,9.918,9.916,9.916,0,0,1,9.918,0" transform="translate(25.786 11.542)"/><path class="a" d="M9.918,0A9.918,9.918,0,1,1,0,9.918,9.916,9.916,0,0,1,9.918,0" transform="translate(49.588 11.542)"/><path class="a" d="M9.918,0A9.918,9.918,0,1,1,0,9.918,9.916,9.916,0,0,1,9.918,0" transform="translate(67.439 27.41)"/><path class="a" d="M52.946,17.3c-3.451-4.05-6.347-7.5-9.834-11.544A16.856,16.856,0,0,0,36.169.516,7.792,7.792,0,0,0,34.856.159,19.966,19.966,0,0,0,31.762,0a16.976,16.976,0,0,0-3.134.194,8.05,8.05,0,0,0-1.309.361,17.089,17.089,0,0,0-6.942,5.236c-3.451,4.046-6.347,7.494-9.838,11.544-5.2,5.193-11.584,10.949-10.394,19,1.15,4.042,4.046,8.053,9.243,9.2,2.9.6,12.139-1.745,21.977-1.745h.714c9.838,0,19.081,2.3,21.977,1.745,5.2-1.15,8.093-5.2,9.243-9.2,1.23-8.093-5.153-13.845-10.354-19.042" transform="translate(15.842 41.295)"/></g></svg>