<svg xmlns="http://www.w3.org/2000/svg" width="128.808" height="128.808" viewBox="0 0 128.808 128.808"><defs><style>.a{fill:none;stroke:#26a1e8;stroke-miterlimit:10;stroke-width:2px;opacity:0.5;}</style></defs><path class="a" d="M81.714,44.089H75.251V26.853a8.643,8.643,0,0,0-8.618-8.618H49.4V11.772a10.772,10.772,0,0,0-21.544,0v6.463H10.618a8.606,8.606,0,0,0-8.575,8.618V43.227h6.42a11.634,11.634,0,0,1,0,23.268H2V82.869a8.643,8.643,0,0,0,8.618,8.618H26.991V85.023a11.634,11.634,0,1,1,23.268,0v6.463H66.633a8.643,8.643,0,0,0,8.618-8.618V65.633h6.463a10.772,10.772,0,0,0,0-21.544Z" transform="matrix(0.819, 0.574, -0.574, 0.819, 52.229, -0.574)"/></svg>