<svg xmlns="http://www.w3.org/2000/svg" xmlns:xlink="http://www.w3.org/1999/xlink" width="154.259" height="174.598" viewBox="0 0 154.259 174.598"><defs><style>.a{fill:url(#a);}.b{fill:url(#d);}.c{clip-path:url(#e);}.d{clip-path:url(#g);}.e{filter:url(#b);}</style><linearGradient id="a" x1="0.5" x2="0.5" y2="1" gradientUnits="objectBoundingBox"><stop offset="0" stop-color="#259fe8"/><stop offset="1" stop-color="#35d3f1"/></linearGradient><filter id="b" x="24.469" y="47.809" width="138.79" height="138.79" filterUnits="userSpaceOnUse"><feOffset dy="3" input="SourceAlpha"/><feGaussianBlur stdDeviation="3" result="c"/><feFlood flood-opacity="0.161"/><feComposite operator="in" in2="c"/><feComposite in="SourceGraphic"/></filter><linearGradient id="d" x1="0.5" x2="0.5" y2="1" gradientUnits="objectBoundingBox"><stop offset="0" stop-color="#34d0f1"/><stop offset="1" stop-color="#259fe8"/></linearGradient><clipPath id="e"><g class="e" transform="matrix(1, 0, 0, 1, 0, 0)"><rect class="a" width="92.787" height="92.787"/></g></clipPath><clipPath id="g"><rect class="b" width="110.292" height="110.292"/></clipPath></defs><g transform="translate(-26.558 31.65) rotate(-22)"><g class="c" transform="translate(34.334 75.259)"><path class="a" d="M46.5.039,7.751,0A7.773,7.773,0,0,0,0,7.751V77.507a7.773,7.773,0,0,0,7.751,7.751H46.5a7.773,7.773,0,0,0,7.751-7.751V7.751A7.74,7.74,0,0,0,46.5.039m0,69.718H7.751V15.5H46.5Z" transform="translate(19.377 3.654)"/></g><g transform="matrix(0.643, 0.766, -0.766, 0.643, 84.489, 0)"><g class="d" transform="translate(0 0)"><path class="b" d="M42.279,13.327l3.676-3.676A32.18,32.18,0,0,0,0,9.651l3.676,3.676a28.739,28.739,0,0,1,19.3-7.812,28.739,28.739,0,0,1,19.3,7.812" transform="translate(50.551 13.787)"/><path class="b" d="M30.33,6.434A21.617,21.617,0,0,0,15.165,0,21.625,21.625,0,0,0,0,6.434L3.676,10.11a15.953,15.953,0,0,1,11.489-4.6,15.946,15.946,0,0,1,11.489,4.6Z" transform="translate(58.363 24.356)"/></g></g></g></svg>