<svg xmlns="http://www.w3.org/2000/svg" width="779.516" height="488.89" viewBox="0 0 779.516 488.89" preserveAspectRatio="none">
  <g id="Union_2" data-name="Union 2" transform="translate(20605.002 13748.807)" fill="none" stroke-dasharray="14">
    <path d="M-20230.029-13268.254l-1.094-54.625a7.963,7.963,0,0,1-4.094,1.124H-20597a8,8,0,0,1-8-8v-352.012a8,8,0,0,1,8-8h358.535l-.918-45.8a8.434,8.434,0,0,1,8.352-8.578l327.01-4.659a8.553,8.553,0,0,1,8.693,8.336l4.729,236.209,54.844-.693c3.23-.042,5.92,3.63,6.008,8.2l4.262,223.426c.088,4.571-2.461,8.311-5.693,8.347l-166.766,2.109a4.241,4.241,0,0,1-1.369-.211l-222.02,3.164h-.125A8.556,8.556,0,0,1-20230.029-13268.254Z" stroke="none"/>
    <path d="M -20221.4609375 -13259.9169921875 C -20223.42578125 -13259.9169921875 -20225.2421875 -13260.5791015625 -20226.69140625 -13261.69140625 C -20226.95703125 -13261.896484375 -20227.212890625 -13262.1162109375 -20227.453125 -13262.349609375 C -20228.87890625 -13263.7373046875 -20229.822265625 -13265.615234375 -20230 -13267.7109375 C -20230.015625 -13267.890625 -20230.025390625 -13268.0712890625 -20230.029296875 -13268.25390625 L -20230.029296875 -13268.25390625 C -20230.029296875 -13268.25390625 -20230.044921875 -13269.015625 -20230.044921875 -13269.015625 L -20227.044921875 -13269.0751953125 L -20227.029296875 -13268.3173828125 C -20227 -13266.873046875 -20226.40625 -13265.517578125 -20225.361328125 -13264.5009765625 C -20224.310546875 -13263.4794921875 -20222.92578125 -13262.9169921875 -20221.4609375 -13262.9169921875 L -20221.435546875 -13262.9169921875 C -20221.412109375 -13262.91796875 -20221.38671875 -13262.91796875 -20221.361328125 -13262.91796875 L -20217.06640625 -13262.9794921875 L -20217.0234375 -13259.9794921875 L -20221.22265625 -13259.919921875 C -20221.224609375 -13259.919921875 -20221.224609375 -13259.919921875 -20221.2265625 -13259.919921875 L -20221.23828125 -13259.9189453125 C -20221.240234375 -13259.9189453125 -20221.2421875 -13259.9189453125 -20221.244140625 -13259.9189453125 L -20221.248046875 -13259.9189453125 C -20221.251953125 -13259.9189453125 -20221.255859375 -13259.9189453125 -20221.259765625 -13259.9189453125 L -20221.26171875 -13259.9189453125 C -20221.271484375 -13259.9189453125 -20221.279296875 -13259.9189453125 -20221.287109375 -13259.9189453125 L -20221.2890625 -13259.9189453125 C -20221.3203125 -13259.91796875 -20221.3359375 -13259.91796875 -20221.3359375 -13259.91796875 L -20221.3359375 -13259.91796875 C -20221.35546875 -13259.91796875 -20221.376953125 -13259.91796875 -20221.396484375 -13259.9169921875 C -20221.396484375 -13259.9169921875 -20221.3984375 -13259.9169921875 -20221.400390625 -13259.9169921875 C -20221.4140625 -13259.9169921875 -20221.4296875 -13259.9169921875 -20221.443359375 -13259.9169921875 C -20221.447265625 -13259.9169921875 -20221.44921875 -13259.9169921875 -20221.451171875 -13259.9169921875 L -20221.4609375 -13262.66015625 L -20221.4609375 -13259.9169921875 C -20221.4609375 -13259.9169921875 -20221.4609375 -13259.9169921875 -20221.4609375 -13259.9169921875 Z M -20230.32421875 -13283.0126953125 C -20230.32421875 -13283.0126953125 -20230.60546875 -13297.009765625 -20230.60546875 -13297.009765625 L -20227.60546875 -13297.0703125 L -20227.326171875 -13283.072265625 L -20230.32421875 -13283.0126953125 Z M -20230.884765625 -13311.0068359375 L -20231.10546875 -13321.99609375 C -20231.10546875 -13321.99609375 -20231.10546875 -13321.99609375 -20231.10546875 -13321.99609375 L -20231.107421875 -13322.0517578125 C -20231.107421875 -13322.052734375 -20231.107421875 -13322.0537109375 -20231.107421875 -13322.0546875 L -20231.111328125 -13322.28125 C -20231.111328125 -13322.2822265625 -20231.111328125 -13322.2822265625 -20231.111328125 -13322.283203125 L -20231.11328125 -13322.3857421875 C -20231.11328125 -13322.3896484375 -20231.11328125 -13322.39453125 -20231.11328125 -13322.3974609375 L -20231.11328125 -13322.3994140625 C -20231.11328125 -13322.408203125 -20231.11328125 -13322.4169921875 -20231.11328125 -13322.42578125 L -20231.11328125 -13322.431640625 C -20231.115234375 -13322.4873046875 -20231.1171875 -13322.5380859375 -20231.1171875 -13322.5830078125 L -20231.1171875 -13322.5859375 C -20231.119140625 -13322.6484375 -20231.119140625 -13322.701171875 -20231.12109375 -13322.744140625 L -20231.12109375 -13322.7470703125 C -20231.123046875 -13322.8330078125 -20231.123046875 -13322.87890625 -20231.123046875 -13322.87890625 L -20231.123046875 -13322.87890625 C -20231.123046875 -13322.87890625 -20231.123046875 -13322.87890625 -20231.123046875 -13322.87890625 C -20231.560546875 -13322.6181640625 -20232.025390625 -13322.3974609375 -20232.513671875 -13322.22265625 C -20232.513671875 -13322.22265625 -20232.513671875 -13322.22265625 -20232.513671875 -13322.22265625 C -20232.517578125 -13322.220703125 -20232.5234375 -13322.21875 -20232.52734375 -13322.216796875 C -20232.52734375 -13322.216796875 -20232.529296875 -13322.216796875 -20232.529296875 -13322.216796875 C -20232.533203125 -13322.21484375 -20232.5390625 -13322.2138671875 -20232.54296875 -13322.2119140625 C -20232.54296875 -13322.2119140625 -20232.544921875 -13322.2109375 -20232.544921875 -13322.2109375 C -20232.548828125 -13322.2099609375 -20232.552734375 -13322.2080078125 -20232.556640625 -13322.20703125 C -20232.55859375 -13322.2060546875 -20232.560546875 -13322.2060546875 -20232.560546875 -13322.205078125 C -20232.564453125 -13322.2041015625 -20232.568359375 -13322.203125 -20232.572265625 -13322.201171875 C -20232.57421875 -13322.201171875 -20232.576171875 -13322.2001953125 -20232.578125 -13322.2001953125 C -20232.580078125 -13322.1982421875 -20232.583984375 -13322.197265625 -20232.587890625 -13322.1962890625 C -20232.58984375 -13322.1953125 -20232.591796875 -13322.1943359375 -20232.59375 -13322.1943359375 C -20232.595703125 -13322.193359375 -20232.599609375 -13322.1923828125 -20232.603515625 -13322.19140625 C -20232.60546875 -13322.1904296875 -20232.607421875 -13322.189453125 -20232.609375 -13322.1884765625 C -20232.611328125 -13322.1875 -20232.615234375 -13322.1865234375 -20232.6171875 -13322.185546875 C -20232.62109375 -13322.1845703125 -20232.623046875 -13322.18359375 -20232.625 -13322.1826171875 C -20232.62890625 -13322.1826171875 -20232.630859375 -13322.181640625 -20232.6328125 -13322.1806640625 C -20232.634765625 -13322.1796875 -20232.638671875 -13322.1787109375 -20232.642578125 -13322.177734375 C -20232.64453125 -13322.1767578125 -20232.64453125 -13322.1767578125 -20232.646484375 -13322.17578125 C -20232.650390625 -13322.1748046875 -20232.654296875 -13322.1728515625 -20232.658203125 -13322.171875 C -20232.66015625 -13322.171875 -20232.66015625 -13322.1708984375 -20232.662109375 -13322.1708984375 C -20232.666015625 -13322.1689453125 -20232.669921875 -13322.16796875 -20232.673828125 -13322.1669921875 C -20232.67578125 -13322.166015625 -20232.67578125 -13322.166015625 -20232.677734375 -13322.1650390625 C -20232.681640625 -13322.1640625 -20232.685546875 -13322.1630859375 -20232.689453125 -13322.1611328125 C -20232.69140625 -13322.1611328125 -20232.69140625 -13322.1611328125 -20232.69140625 -13322.1611328125 C -20232.697265625 -13322.1591796875 -20232.701171875 -13322.1572265625 -20232.705078125 -13322.15625 C -20232.70703125 -13322.15625 -20232.70703125 -13322.1552734375 -20232.70703125 -13322.1552734375 C -20232.712890625 -13322.154296875 -20232.716796875 -13322.15234375 -20232.72265625 -13322.150390625 C -20232.72265625 -13322.150390625 -20232.72265625 -13322.150390625 -20232.72265625 -13322.150390625 C -20232.837890625 -13322.11328125 -20232.955078125 -13322.078125 -20233.072265625 -13322.044921875 L -20233.873046875 -13324.935546875 C -20233.44921875 -13325.0537109375 -20233.041015625 -13325.228515625 -20232.66015625 -13325.4560546875 L -20228.2265625 -13328.0986328125 L -20228.123046875 -13322.939453125 L -20227.88671875 -13311.0673828125 L -20230.884765625 -13311.0068359375 Z M -20247.044921875 -13321.7548828125 L -20261.044921875 -13321.7548828125 L -20261.044921875 -13324.7548828125 L -20247.044921875 -13324.7548828125 L -20247.044921875 -13321.7548828125 Z M -20275.044921875 -13321.7548828125 L -20289.044921875 -13321.7548828125 L -20289.044921875 -13324.7548828125 L -20275.044921875 -13324.7548828125 L -20275.044921875 -13321.7548828125 Z M -20303.044921875 -13321.7548828125 L -20317.044921875 -13321.7548828125 L -20317.044921875 -13324.7548828125 L -20303.044921875 -13324.7548828125 L -20303.044921875 -13321.7548828125 Z M -20331.044921875 -13321.7548828125 L -20345.044921875 -13321.7548828125 L -20345.044921875 -13324.7548828125 L -20331.044921875 -13324.7548828125 L -20331.044921875 -13321.7548828125 Z M -20359.044921875 -13321.7548828125 L -20373.044921875 -13321.7548828125 L -20373.044921875 -13324.7548828125 L -20359.044921875 -13324.7548828125 L -20359.044921875 -13321.7548828125 Z M -20387.044921875 -13321.7548828125 L -20401.044921875 -13321.7548828125 L -20401.044921875 -13324.7548828125 L -20387.044921875 -13324.7548828125 L -20387.044921875 -13321.7548828125 Z M -20415.044921875 -13321.7548828125 L -20429.044921875 -13321.7548828125 L -20429.044921875 -13324.7548828125 L -20415.044921875 -13324.7548828125 L -20415.044921875 -13321.7548828125 Z M -20443.044921875 -13321.7548828125 L -20457.044921875 -13321.7548828125 L -20457.044921875 -13324.7548828125 L -20443.044921875 -13324.7548828125 L -20443.044921875 -13321.7548828125 Z M -20471.044921875 -13321.7548828125 L -20485.044921875 -13321.7548828125 L -20485.044921875 -13324.7548828125 L -20471.044921875 -13324.7548828125 L -20471.044921875 -13321.7548828125 Z M -20499.044921875 -13321.7548828125 L -20513.044921875 -13321.7548828125 L -20513.044921875 -13324.7548828125 L -20499.044921875 -13324.7548828125 L -20499.044921875 -13321.7548828125 Z M -20527.044921875 -13321.7548828125 L -20541.044921875 -13321.7548828125 L -20541.044921875 -13324.7548828125 L -20527.044921875 -13324.7548828125 L -20527.044921875 -13321.7548828125 Z M -20555.044921875 -13321.7548828125 L -20569.044921875 -13321.7548828125 L -20569.044921875 -13324.7548828125 L -20555.044921875 -13324.7548828125 L -20555.044921875 -13321.7548828125 Z M -20583.044921875 -13321.7548828125 L -20597.001953125 -13321.7548828125 C -20597.015625 -13321.7548828125 -20597.03125 -13321.7548828125 -20597.044921875 -13321.7548828125 L -20597.029296875 -13324.7548828125 L -20597.001953125 -13324.7548828125 L -20583.044921875 -13324.7548828125 L -20583.044921875 -13321.7548828125 Z M -20602.001953125 -13331.23046875 L -20605.001953125 -13331.23046875 C -20605.001953125 -13331.23046875 -20605.001953125 -13345.23046875 -20605.001953125 -13345.23046875 L -20602.001953125 -13345.23046875 L -20602.001953125 -13331.23046875 Z M -20602.001953125 -13359.23046875 L -20605.001953125 -13359.23046875 C -20605.001953125 -13359.23046875 -20605.001953125 -13373.23046875 -20605.001953125 -13373.23046875 L -20602.001953125 -13373.23046875 L -20602.001953125 -13359.23046875 Z M -20602.001953125 -13387.23046875 L -20605.001953125 -13387.23046875 C -20605.001953125 -13387.23046875 -20605.001953125 -13401.23046875 -20605.001953125 -13401.23046875 L -20602.001953125 -13401.23046875 L -20602.001953125 -13387.23046875 Z M -20602.001953125 -13415.23046875 L -20605.001953125 -13415.23046875 C -20605.001953125 -13415.23046875 -20605.001953125 -13429.23046875 -20605.001953125 -13429.23046875 L -20602.001953125 -13429.23046875 L -20602.001953125 -13415.23046875 Z M -20602.001953125 -13443.23046875 L -20605.001953125 -13443.23046875 C -20605.001953125 -13443.23046875 -20605.001953125 -13457.23046875 -20605.001953125 -13457.23046875 L -20602.001953125 -13457.23046875 L -20602.001953125 -13443.23046875 Z M -20602.001953125 -13471.23046875 L -20605.001953125 -13471.23046875 C -20605.001953125 -13471.23046875 -20605.001953125 -13485.23046875 -20605.001953125 -13485.23046875 L -20602.001953125 -13485.23046875 L -20602.001953125 -13471.23046875 Z M -20602.001953125 -13499.23046875 L -20605.001953125 -13499.23046875 C -20605.001953125 -13499.23046875 -20605.001953125 -13513.23046875 -20605.001953125 -13513.23046875 L -20602.001953125 -13513.23046875 L -20602.001953125 -13499.23046875 Z M -20602.001953125 -13527.23046875 L -20605.001953125 -13527.23046875 C -20605.001953125 -13527.23046875 -20605.001953125 -13541.23046875 -20605.001953125 -13541.23046875 L -20602.001953125 -13541.23046875 L -20602.001953125 -13527.23046875 Z M -20602.001953125 -13555.23046875 L -20605.001953125 -13555.23046875 C -20605.001953125 -13555.23046875 -20605.001953125 -13569.23046875 -20605.001953125 -13569.23046875 L -20602.001953125 -13569.23046875 L -20602.001953125 -13555.23046875 Z M -20602.001953125 -13583.23046875 L -20605.001953125 -13583.23046875 C -20605.001953125 -13583.23046875 -20605.001953125 -13597.23046875 -20605.001953125 -13597.23046875 L -20602.001953125 -13597.23046875 L -20602.001953125 -13583.23046875 Z M -20602.001953125 -13611.23046875 L -20605.001953125 -13611.23046875 C -20605.001953125 -13611.23046875 -20605.001953125 -13625.23046875 -20605.001953125 -13625.23046875 L -20602.001953125 -13625.23046875 L -20602.001953125 -13611.23046875 Z M -20602.001953125 -13639.23046875 L -20605.001953125 -13639.23046875 C -20605.001953125 -13639.23046875 -20605.001953125 -13653.23046875 -20605.001953125 -13653.23046875 L -20602.001953125 -13653.23046875 L -20602.001953125 -13639.23046875 Z M -20602.001953125 -13667.23046875 L -20605.001953125 -13667.23046875 C -20605.001953125 -13667.23046875 -20605.001953125 -13681.23046875 -20605.001953125 -13681.23046875 L -20602.001953125 -13681.23046875 L -20602.001953125 -13667.23046875 Z M -20582.10546875 -13686.7666015625 L -20596.10546875 -13686.7666015625 L -20596.10546875 -13689.7666015625 C -20596.10546875 -13689.7666015625 -20582.10546875 -13689.7666015625 -20582.10546875 -13689.7666015625 L -20582.10546875 -13686.7666015625 Z M -20554.10546875 -13686.7666015625 L -20568.10546875 -13686.7666015625 L -20568.10546875 -13689.7666015625 C -20568.10546875 -13689.7666015625 -20554.10546875 -13689.7666015625 -20554.10546875 -13689.7666015625 L -20554.10546875 -13686.7666015625 Z M -20526.10546875 -13686.7666015625 L -20540.10546875 -13686.7666015625 L -20540.10546875 -13689.7666015625 C -20540.10546875 -13689.7666015625 -20526.10546875 -13689.7666015625 -20526.10546875 -13689.7666015625 L -20526.10546875 -13686.7666015625 Z M -20498.10546875 -13686.7666015625 L -20512.10546875 -13686.7666015625 L -20512.10546875 -13689.7666015625 C -20512.10546875 -13689.7666015625 -20498.10546875 -13689.7666015625 -20498.10546875 -13689.7666015625 L -20498.10546875 -13686.7666015625 Z M -20470.10546875 -13686.7666015625 L -20484.10546875 -13686.7666015625 L -20484.10546875 -13689.7666015625 C -20484.10546875 -13689.7666015625 -20470.10546875 -13689.7666015625 -20470.10546875 -13689.7666015625 L -20470.10546875 -13686.7666015625 Z M -20442.10546875 -13686.7666015625 L -20456.10546875 -13686.7666015625 L -20456.10546875 -13689.7666015625 C -20456.10546875 -13689.7666015625 -20442.10546875 -13689.7666015625 -20442.10546875 -13689.7666015625 L -20442.10546875 -13686.7666015625 Z M -20414.10546875 -13686.7666015625 L -20428.10546875 -13686.7666015625 L -20428.10546875 -13689.7666015625 C -20428.10546875 -13689.7666015625 -20414.10546875 -13689.7666015625 -20414.10546875 -13689.7666015625 L -20414.10546875 -13686.7666015625 Z M -20386.10546875 -13686.7666015625 L -20400.10546875 -13686.7666015625 L -20400.10546875 -13689.7666015625 C -20400.10546875 -13689.7666015625 -20386.10546875 -13689.7666015625 -20386.10546875 -13689.7666015625 L -20386.10546875 -13686.7666015625 Z M -20358.10546875 -13686.7666015625 L -20372.10546875 -13686.7666015625 L -20372.10546875 -13689.7666015625 C -20372.10546875 -13689.7666015625 -20358.10546875 -13689.7666015625 -20358.10546875 -13689.7666015625 L -20358.10546875 -13686.7666015625 Z M -20330.10546875 -13686.7666015625 L -20344.10546875 -13686.7666015625 L -20344.10546875 -13689.7666015625 C -20344.10546875 -13689.7666015625 -20330.10546875 -13689.7666015625 -20330.10546875 -13689.7666015625 L -20330.10546875 -13686.7666015625 Z M -20302.10546875 -13686.7666015625 L -20316.10546875 -13686.7666015625 L -20316.10546875 -13689.7666015625 C -20316.10546875 -13689.7666015625 -20302.10546875 -13689.7666015625 -20302.10546875 -13689.7666015625 L -20302.10546875 -13686.7666015625 Z M -20274.10546875 -13686.7666015625 L -20288.10546875 -13686.7666015625 L -20288.10546875 -13689.7666015625 C -20288.10546875 -13689.7666015625 -20274.10546875 -13689.7666015625 -20274.10546875 -13689.7666015625 L -20274.10546875 -13686.7666015625 Z M -20246.10546875 -13686.7666015625 L -20260.10546875 -13686.7666015625 L -20260.10546875 -13689.7666015625 C -20260.10546875 -13689.7666015625 -20246.10546875 -13689.7666015625 -20246.10546875 -13689.7666015625 L -20246.10546875 -13686.7666015625 Z M -20238.59375 -13696.126953125 L -20238.732421875 -13703.0185546875 C -20238.732421875 -13703.0234375 -20238.732421875 -13703.02734375 -20238.732421875 -13703.03125 L -20238.732421875 -13703.0498046875 C -20238.732421875 -13703.064453125 -20238.734375 -13703.078125 -20238.734375 -13703.0927734375 L -20238.734375 -13703.140625 C -20238.734375 -13703.146484375 -20238.734375 -13703.1513671875 -20238.734375 -13703.1572265625 L -20238.736328125 -13703.1708984375 C -20238.8046875 -13706.6552734375 -20238.875 -13710.1240234375 -20238.875 -13710.1240234375 L -20235.875 -13710.1845703125 L -20235.595703125 -13696.1865234375 L -20238.59375 -13696.126953125 Z M -20239.15625 -13724.12109375 L -20239.375 -13735.1259765625 C -20239.375 -13735.1259765625 -20239.375 -13735.126953125 -20239.375 -13735.126953125 L -20239.376953125 -13735.1396484375 C -20239.376953125 -13735.140625 -20239.376953125 -13735.140625 -20239.376953125 -13735.1416015625 L -20239.376953125 -13735.166015625 C -20239.376953125 -13735.1669921875 -20239.376953125 -13735.16796875 -20239.376953125 -13735.1689453125 L -20239.376953125 -13735.1796875 C -20239.376953125 -13735.1806640625 -20239.376953125 -13735.1806640625 -20239.376953125 -13735.181640625 L -20239.376953125 -13735.21484375 C -20239.376953125 -13735.2177734375 -20239.376953125 -13735.220703125 -20239.376953125 -13735.224609375 L -20239.37890625 -13735.2275390625 C -20239.37890625 -13735.2294921875 -20239.37890625 -13735.232421875 -20239.37890625 -13735.234375 L -20239.37890625 -13735.2412109375 C -20239.37890625 -13735.251953125 -20239.37890625 -13735.2626953125 -20239.37890625 -13735.2734375 L -20239.37890625 -13735.275390625 C -20239.37890625 -13735.27734375 -20239.37890625 -13735.279296875 -20239.37890625 -13735.28125 L -20239.37890625 -13735.2880859375 C -20239.380859375 -13735.34765625 -20239.380859375 -13735.3984375 -20239.3828125 -13735.439453125 L -20239.3828125 -13735.4404296875 C -20239.384765625 -13735.5234375 -20239.384765625 -13735.568359375 -20239.384765625 -13735.568359375 L -20239.384765625 -13735.568359375 C -20239.384765625 -13735.576171875 -20239.384765625 -13735.5849609375 -20239.384765625 -13735.5927734375 C -20239.384765625 -13735.595703125 -20239.384765625 -13735.59765625 -20239.384765625 -13735.6005859375 C -20239.384765625 -13735.6064453125 -20239.384765625 -13735.6123046875 -20239.384765625 -13735.6181640625 C -20239.384765625 -13735.62109375 -20239.384765625 -13735.623046875 -20239.384765625 -13735.6259765625 C -20239.38671875 -13735.6337890625 -20239.38671875 -13735.6416015625 -20239.38671875 -13735.650390625 C -20239.38671875 -13735.650390625 -20239.38671875 -13735.650390625 -20239.38671875 -13735.650390625 C -20239.38671875 -13735.658203125 -20239.38671875 -13735.6669921875 -20239.38671875 -13735.6748046875 C -20239.38671875 -13735.6767578125 -20239.38671875 -13735.6796875 -20239.38671875 -13735.6826171875 C -20239.38671875 -13735.6884765625 -20239.38671875 -13735.6943359375 -20239.38671875 -13735.7001953125 C -20239.38671875 -13735.703125 -20239.38671875 -13735.705078125 -20239.38671875 -13735.7080078125 C -20239.38671875 -13735.7158203125 -20239.38671875 -13735.7236328125 -20239.38671875 -13735.7314453125 C -20239.38671875 -13735.732421875 -20239.38671875 -13735.732421875 -20239.38671875 -13735.7333984375 C -20239.38671875 -13735.7412109375 -20239.38671875 -13735.7490234375 -20239.38671875 -13735.755859375 C -20239.38671875 -13735.7587890625 -20239.38671875 -13735.76171875 -20239.38671875 -13735.7646484375 C -20239.38671875 -13735.76953125 -20239.38671875 -13735.775390625 -20239.38671875 -13735.78125 C -20239.38671875 -13735.7841796875 -20239.38671875 -13735.787109375 -20239.38671875 -13735.7900390625 C -20239.38671875 -13735.796875 -20239.38671875 -13735.8046875 -20239.38671875 -13735.8115234375 C -20239.38671875 -13735.8134765625 -20239.38671875 -13735.814453125 -20239.38671875 -13735.81640625 C -20239.38671875 -13735.8232421875 -20239.38671875 -13735.8310546875 -20239.38671875 -13735.837890625 C -20239.38671875 -13735.8408203125 -20239.38671875 -13735.8427734375 -20239.384765625 -13735.845703125 C -20239.384765625 -13735.8515625 -20239.384765625 -13735.857421875 -20239.384765625 -13735.86328125 C -20239.384765625 -13735.8662109375 -20239.384765625 -13735.8681640625 -20239.384765625 -13735.87109375 C -20239.384765625 -13735.88671875 -20239.384765625 -13735.9033203125 -20239.384765625 -13735.919921875 C -20239.384765625 -13735.921875 -20239.384765625 -13735.923828125 -20239.384765625 -13735.92578125 C -20239.384765625 -13735.9326171875 -20239.384765625 -13735.939453125 -20239.384765625 -13735.9453125 C -20239.384765625 -13735.947265625 -20239.3828125 -13735.94921875 -20239.3828125 -13735.9521484375 C -20239.3828125 -13735.9677734375 -20239.3828125 -13735.984375 -20239.3828125 -13736.0009765625 C -20239.3828125 -13736.0029296875 -20239.3828125 -13736.005859375 -20239.3828125 -13736.0078125 C -20239.3828125 -13736.013671875 -20239.380859375 -13736.0205078125 -20239.380859375 -13736.02734375 C -20239.380859375 -13736.029296875 -20239.380859375 -13736.0302734375 -20239.380859375 -13736.0322265625 C -20239.380859375 -13736.0498046875 -20239.380859375 -13736.06640625 -20239.37890625 -13736.0830078125 C -20239.37890625 -13736.083984375 -20239.37890625 -13736.0859375 -20239.37890625 -13736.0869140625 C -20239.37890625 -13736.0947265625 -20239.37890625 -13736.1015625 -20239.37890625 -13736.1083984375 C -20239.37890625 -13736.1103515625 -20239.37890625 -13736.111328125 -20239.37890625 -13736.11328125 C -20239.376953125 -13736.1298828125 -20239.376953125 -13736.1474609375 -20239.375 -13736.1640625 C -20239.375 -13736.1650390625 -20239.375 -13736.166015625 -20239.375 -13736.1669921875 C -20239.375 -13736.17578125 -20239.375 -13736.1826171875 -20239.375 -13736.19140625 C -20239.375 -13736.19140625 -20239.375 -13736.1923828125 -20239.375 -13736.193359375 C -20239.373046875 -13736.2099609375 -20239.373046875 -13736.2275390625 -20239.37109375 -13736.2451171875 C -20239.37109375 -13736.24609375 -20239.37109375 -13736.2470703125 -20239.37109375 -13736.2470703125 C -20239.37109375 -13736.255859375 -20239.369140625 -13736.263671875 -20239.369140625 -13736.271484375 C -20239.369140625 -13736.2724609375 -20239.369140625 -13736.2724609375 -20239.369140625 -13736.2734375 C -20239.369140625 -13736.291015625 -20239.3671875 -13736.30859375 -20239.365234375 -13736.326171875 C -20239.365234375 -13736.326171875 -20239.365234375 -13736.3271484375 -20239.365234375 -13736.3271484375 C -20239.32421875 -13736.93359375 -20239.216796875 -13737.5224609375 -20239.05078125 -13738.0869140625 L -20236.171875 -13737.24609375 C -20236.32421875 -13736.724609375 -20236.396484375 -13736.1796875 -20236.384765625 -13735.62890625 L -20236.15625 -13724.181640625 L -20239.15625 -13724.12109375 Z M -20227.751953125 -13741.1923828125 L -20227.794921875 -13744.1923828125 C -20227.794921875 -13744.1923828125 -20222.603515625 -13744.2666015625 -20218.544921875 -13744.32421875 L -20218.521484375 -13744.32421875 C -20218.517578125 -13744.3251953125 -20218.515625 -13744.3251953125 -20218.51171875 -13744.3251953125 L -20218.439453125 -13744.326171875 C -20218.439453125 -13744.326171875 -20218.4375 -13744.326171875 -20218.4375 -13744.326171875 L -20213.796875 -13744.3916015625 L -20213.75390625 -13741.392578125 L -20227.751953125 -13741.1923828125 Z M -20199.755859375 -13741.591796875 L -20199.798828125 -13744.591796875 C -20199.798828125 -13744.591796875 -20194.6015625 -13744.6650390625 -20190.5390625 -13744.7236328125 L -20190.537109375 -13744.7236328125 C -20190.525390625 -13744.7236328125 -20190.513671875 -13744.7236328125 -20190.501953125 -13744.7236328125 L -20190.49609375 -13744.7236328125 C -20190.48828125 -13744.7236328125 -20190.48046875 -13744.724609375 -20190.47265625 -13744.724609375 L -20190.44921875 -13744.724609375 C -20190.4375 -13744.724609375 -20190.423828125 -13744.724609375 -20190.41015625 -13744.7255859375 L -20185.798828125 -13744.791015625 L -20185.7578125 -13741.791015625 L -20199.755859375 -13741.591796875 Z M -20171.7578125 -13741.990234375 L -20171.80078125 -13744.990234375 C -20171.80078125 -13744.990234375 -20166.46875 -13745.06640625 -20162.38671875 -13745.1240234375 L -20162.384765625 -13745.125 C -20162.365234375 -13745.125 -20162.34375 -13745.125 -20162.322265625 -13745.125 L -20162.294921875 -13745.1259765625 C -20162.2890625 -13745.1259765625 -20162.28515625 -13745.1259765625 -20162.279296875 -13745.1259765625 L -20157.802734375 -13745.189453125 L -20157.759765625 -13742.1904296875 L -20171.7578125 -13741.990234375 Z M -20143.76171875 -13742.3896484375 L -20143.8046875 -13745.3896484375 C -20143.8046875 -13745.3896484375 -20138.41015625 -13745.4658203125 -20134.3203125 -13745.5244140625 L -20134.3046875 -13745.5244140625 C -20134.287109375 -13745.5244140625 -20134.26953125 -13745.525390625 -20134.25 -13745.525390625 L -20129.8046875 -13745.5888671875 L -20129.76171875 -13742.5888671875 L -20143.76171875 -13742.3896484375 Z M -20115.763671875 -13742.7880859375 L -20115.806640625 -13745.7880859375 C -20115.806640625 -13745.7880859375 -20110.33984375 -13745.8662109375 -20106.23828125 -13745.9248046875 L -20106.234375 -13745.9248046875 C -20106.212890625 -13745.9248046875 -20106.189453125 -13745.9248046875 -20106.166015625 -13745.92578125 L -20106.15625 -13745.92578125 C -20106.134765625 -13745.92578125 -20106.11328125 -13745.9267578125 -20106.091796875 -13745.9267578125 L -20106.078125 -13745.9267578125 C -20106.056640625 -13745.9267578125 -20106.03515625 -13745.927734375 -20106.013671875 -13745.927734375 L -20106.005859375 -13745.927734375 C -20105.986328125 -13745.927734375 -20105.96875 -13745.9287109375 -20105.94921875 -13745.9287109375 L -20105.876953125 -13745.9296875 C -20105.876953125 -13745.9296875 -20105.875 -13745.9296875 -20105.875 -13745.9296875 L -20101.80859375 -13745.9873046875 L -20101.765625 -13742.98828125 L -20115.763671875 -13742.7880859375 Z M -20087.767578125 -13743.1875 L -20087.810546875 -13746.1875 C -20087.810546875 -13746.1875 -20081.853515625 -13746.271484375 -20077.7109375 -13746.3310546875 L -20077.7109375 -13746.3310546875 C -20077.689453125 -13746.3310546875 -20077.669921875 -13746.3310546875 -20077.6484375 -13746.33203125 L -20077.62109375 -13746.33203125 C -20077.6171875 -13746.33203125 -20077.611328125 -13746.33203125 -20077.607421875 -13746.33203125 L -20077.591796875 -13746.3330078125 C -20077.5859375 -13746.3330078125 -20077.58203125 -13746.3330078125 -20077.576171875 -13746.3330078125 L -20077.552734375 -13746.3330078125 C -20077.544921875 -13746.3330078125 -20077.5390625 -13746.3330078125 -20077.53125 -13746.333984375 L -20077.4375 -13746.3349609375 C -20077.435546875 -13746.3349609375 -20077.43359375 -13746.3349609375 -20077.431640625 -13746.3349609375 L -20073.810546875 -13746.38671875 L -20073.767578125 -13743.38671875 L -20087.767578125 -13743.1875 Z M -20059.76953125 -13743.5859375 L -20059.8125 -13746.5859375 C -20059.8125 -13746.5859375 -20053.861328125 -13746.6708984375 -20049.71875 -13746.7294921875 L -20049.701171875 -13746.73046875 C -20049.697265625 -13746.73046875 -20049.69140625 -13746.73046875 -20049.685546875 -13746.73046875 L -20049.548828125 -13746.732421875 C -20049.546875 -13746.732421875 -20049.544921875 -13746.732421875 -20049.544921875 -13746.732421875 L -20045.814453125 -13746.78515625 L -20045.771484375 -13743.7861328125 L -20059.76953125 -13743.5859375 Z M -20031.7734375 -13743.9853515625 L -20031.814453125 -13746.984375 C -20031.814453125 -13746.984375 -20025.5078125 -13747.0751953125 -20021.359375 -13747.1337890625 L -20021.33984375 -13747.1337890625 C -20021.330078125 -13747.1337890625 -20021.322265625 -13747.134765625 -20021.314453125 -13747.134765625 L -20017.81640625 -13747.1845703125 L -20017.7734375 -13744.1845703125 L -20031.7734375 -13743.9853515625 Z M -20003.775390625 -13744.3837890625 L -20003.818359375 -13747.3837890625 C -20003.818359375 -13747.3837890625 -19997.5078125 -13747.4736328125 -19993.359375 -13747.533203125 L -19993.34375 -13747.533203125 C -19993.328125 -13747.533203125 -19993.310546875 -13747.533203125 -19993.29296875 -13747.5341796875 L -19993.265625 -13747.5341796875 C -19993.263671875 -13747.5341796875 -19993.259765625 -13747.5341796875 -19993.2578125 -13747.5341796875 L -19993.2265625 -13747.5341796875 C -19993.2265625 -13747.53515625 -19993.2265625 -13747.53515625 -19993.2265625 -13747.53515625 L -19989.8203125 -13747.5830078125 L -19989.77734375 -13744.583984375 L -20003.775390625 -13744.3837890625 Z M -19975.77734375 -13744.783203125 L -19975.8203125 -13747.7822265625 C -19975.8203125 -13747.7822265625 -19969.322265625 -13747.875 -19965.181640625 -13747.9345703125 L -19965.166015625 -13747.9345703125 C -19965.162109375 -13747.9345703125 -19965.158203125 -13747.9345703125 -19965.15234375 -13747.9345703125 L -19965.12890625 -13747.9345703125 C -19965.125 -13747.935546875 -19965.119140625 -13747.935546875 -19965.115234375 -13747.935546875 L -19961.822265625 -13747.982421875 L -19961.779296875 -13744.982421875 L -19975.77734375 -13744.783203125 Z M -19947.78125 -13745.181640625 L -19947.82421875 -13748.181640625 C -19947.82421875 -13748.181640625 -19940.94921875 -13748.279296875 -19936.833984375 -13748.337890625 L -19936.8203125 -13748.337890625 C -19936.814453125 -13748.3388671875 -19936.810546875 -13748.3388671875 -19936.8046875 -13748.3388671875 L -19936.783203125 -13748.3388671875 C -19936.77734375 -13748.3388671875 -19936.7734375 -13748.3388671875 -19936.767578125 -13748.3388671875 L -19936.712890625 -13748.33984375 C -19936.7109375 -13748.33984375 -19936.708984375 -13748.33984375 -19936.70703125 -13748.33984375 L -19933.82421875 -13748.380859375 L -19933.783203125 -13745.380859375 L -19947.78125 -13745.181640625 Z M -19919.783203125 -13745.5810546875 L -19919.826171875 -13748.580078125 C -19919.826171875 -13748.580078125 -19913.0625 -13748.6767578125 -19908.939453125 -13748.7353515625 L -19908.9296875 -13748.7353515625 C -19908.919921875 -13748.736328125 -19908.91015625 -13748.736328125 -19908.900390625 -13748.736328125 L -19908.900390625 -13748.736328125 C -19908.890625 -13748.736328125 -19908.87890625 -13748.736328125 -19908.869140625 -13748.736328125 L -19908.857421875 -13748.736328125 C -19908.853515625 -13748.7373046875 -19908.849609375 -13748.7373046875 -19908.845703125 -13748.7373046875 L -19908.814453125 -13748.7373046875 C -19908.814453125 -13748.7373046875 -19908.814453125 -13748.7373046875 -19908.814453125 -13748.7373046875 L -19908.779296875 -13748.73828125 C -19908.779296875 -13748.73828125 -19908.779296875 -13748.73828125 -19908.779296875 -13748.73828125 L -19905.828125 -13748.7802734375 L -19905.78515625 -13745.7802734375 L -19919.783203125 -13745.5810546875 Z M -19898.072265625 -13727.58203125 L -19898.330078125 -13740.4091796875 C -19898.333984375 -13740.662109375 -19898.357421875 -13740.9150390625 -19898.396484375 -13741.162109375 L -19895.43359375 -13741.6337890625 C -19895.43359375 -13741.6279296875 -19895.431640625 -13741.6220703125 -19895.431640625 -13741.615234375 C -19895.4296875 -13741.6142578125 -19895.4296875 -13741.61328125 -19895.4296875 -13741.611328125 C -19895.4296875 -13741.60546875 -19895.427734375 -13741.5986328125 -19895.427734375 -13741.591796875 C -19895.427734375 -13741.58984375 -19895.42578125 -13741.587890625 -19895.42578125 -13741.5859375 C -19895.423828125 -13741.5703125 -19895.421875 -13741.5546875 -19895.419921875 -13741.5390625 C -19895.41796875 -13741.537109375 -19895.41796875 -13741.53515625 -19895.41796875 -13741.5341796875 C -19895.416015625 -13741.517578125 -19895.4140625 -13741.5009765625 -19895.412109375 -13741.484375 C -19895.412109375 -13741.484375 -19895.412109375 -13741.4833984375 -19895.412109375 -13741.4833984375 C -19895.365234375 -13741.1611328125 -19895.337890625 -13740.83203125 -19895.330078125 -13740.4990234375 C -19895.330078125 -13740.4970703125 -19895.330078125 -13740.49609375 -19895.330078125 -13740.4951171875 C -19895.330078125 -13740.486328125 -19895.330078125 -13740.478515625 -19895.330078125 -13740.4697265625 C -19895.330078125 -13740.4697265625 -19895.330078125 -13740.4697265625 -19895.330078125 -13740.4697265625 C -19895.330078125 -13740.4697265625 -19895.328125 -13740.419921875 -19895.328125 -13740.326171875 L -19895.328125 -13740.32421875 C -19895.326171875 -13740.27734375 -19895.32421875 -13740.220703125 -19895.32421875 -13740.1533203125 L -19895.32421875 -13740.1513671875 C -19895.322265625 -13740.0859375 -19895.3203125 -13740.01171875 -19895.318359375 -13739.9296875 L -19895.318359375 -13739.9111328125 C -19895.318359375 -13739.8935546875 -19895.318359375 -13739.875 -19895.318359375 -13739.8564453125 L -19895.318359375 -13739.8486328125 C -19895.31640625 -13739.828125 -19895.31640625 -13739.8056640625 -19895.31640625 -13739.783203125 L -19895.31640625 -13739.7724609375 C -19895.31640625 -13739.763671875 -19895.31640625 -13739.75390625 -19895.31640625 -13739.7451171875 L -19895.31640625 -13739.7421875 C -19895.314453125 -13739.7099609375 -19895.314453125 -13739.67578125 -19895.314453125 -13739.640625 L -19895.3125 -13739.60546875 C -19895.3125 -13739.5888671875 -19895.3125 -13739.5712890625 -19895.3125 -13739.5537109375 L -19895.310546875 -13739.5390625 C -19895.310546875 -13739.5322265625 -19895.310546875 -13739.525390625 -19895.310546875 -13739.5185546875 L -19895.302734375 -13739.134765625 C -19895.302734375 -13739.1337890625 -19895.302734375 -13739.1318359375 -19895.302734375 -13739.130859375 L -19895.07421875 -13727.642578125 L -19898.072265625 -13727.58203125 Z M -19897.51171875 -13699.587890625 L -19897.79296875 -13713.5849609375 L -19894.79296875 -13713.64453125 L -19894.513671875 -13699.6474609375 L -19897.51171875 -13699.587890625 Z M -19896.951171875 -13671.59375 L -19897.232421875 -13685.5908203125 L -19894.232421875 -13685.650390625 L -19893.953125 -13671.6533203125 L -19896.951171875 -13671.59375 Z M -19896.390625 -13643.5986328125 L -19896.671875 -13657.595703125 L -19893.671875 -13657.65625 L -19893.392578125 -13643.6591796875 L -19896.390625 -13643.5986328125 Z M -19895.83203125 -13615.6044921875 L -19896.111328125 -13629.6015625 L -19893.111328125 -13629.662109375 L -19892.83203125 -13615.6640625 L -19895.83203125 -13615.6044921875 Z M -19895.271484375 -13587.6103515625 L -19895.55078125 -13601.607421875 L -19892.55078125 -13601.6669921875 L -19892.271484375 -13587.669921875 L -19895.271484375 -13587.6103515625 Z M -19894.7109375 -13559.6162109375 L -19894.990234375 -13573.61328125 L -19891.990234375 -13573.6728515625 L -19891.7109375 -13559.67578125 L -19894.7109375 -13559.6162109375 Z M -19894.150390625 -13531.62109375 L -19894.4296875 -13545.6181640625 L -19891.431640625 -13545.6787109375 L -19891.150390625 -13531.681640625 L -19894.150390625 -13531.62109375 Z M -19893.541015625 -13501.2236328125 L -19893.6015625 -13504.201171875 L -19893.869140625 -13517.6240234375 L -19890.87109375 -13517.6845703125 L -19890.630859375 -13505.763671875 C -19890.630859375 -13505.7626953125 -19890.630859375 -13505.7607421875 -19890.630859375 -13505.7587890625 L -19890.623046875 -13505.3720703125 C -19890.623046875 -13505.37109375 -19890.623046875 -13505.3701171875 -19890.623046875 -13505.3681640625 L -19890.623046875 -13505.349609375 C -19890.623046875 -13505.3486328125 -19890.623046875 -13505.34765625 -19890.623046875 -13505.3466796875 L -19890.623046875 -13505.3046875 C -19890.623046875 -13505.3037109375 -19890.623046875 -13505.3017578125 -19890.623046875 -13505.30078125 L -19890.62109375 -13505.283203125 C -19890.62109375 -13505.28125 -19890.62109375 -13505.2802734375 -19890.62109375 -13505.2783203125 L -19890.62109375 -13505.2373046875 C -19890.62109375 -13505.2373046875 -19890.62109375 -13505.2373046875 -19890.62109375 -13505.236328125 L -19890.62109375 -13505.2197265625 C -19890.62109375 -13505.216796875 -19890.62109375 -13505.212890625 -19890.62109375 -13505.2099609375 L -19890.62109375 -13505.19921875 C -19890.62109375 -13505.1962890625 -19890.62109375 -13505.1923828125 -19890.62109375 -13505.189453125 L -19890.619140625 -13505.1142578125 C -19890.619140625 -13505.1123046875 -19890.619140625 -13505.1103515625 -19890.619140625 -13505.1083984375 L -19890.619140625 -13505.0927734375 C -19890.619140625 -13505.08984375 -19890.6171875 -13505.0888671875 -19890.6171875 -13505.0859375 L -19890.6171875 -13505.07421875 C -19890.6171875 -13505.072265625 -19890.6171875 -13505.0703125 -19890.6171875 -13505.0673828125 L -19890.6171875 -13505.052734375 C -19890.6171875 -13505.05078125 -19890.6171875 -13505.048828125 -19890.6171875 -13505.0458984375 L -19890.6171875 -13505.033203125 C -19890.6171875 -13505.0302734375 -19890.6171875 -13505.02734375 -19890.6171875 -13505.0234375 L -19890.6171875 -13505.0205078125 C -19890.6171875 -13505.009765625 -19890.6171875 -13505 -19890.615234375 -13504.9892578125 L -19890.615234375 -13504.9765625 C -19890.615234375 -13504.9736328125 -19890.615234375 -13504.970703125 -19890.615234375 -13504.9677734375 L -19890.615234375 -13504.958984375 C -19890.615234375 -13504.955078125 -19890.615234375 -13504.9521484375 -19890.615234375 -13504.9482421875 L -19890.615234375 -13504.9423828125 C -19890.615234375 -13504.931640625 -19890.615234375 -13504.9208984375 -19890.615234375 -13504.9111328125 L -19890.615234375 -13504.90625 C -19890.615234375 -13504.896484375 -19890.61328125 -13504.8876953125 -19890.61328125 -13504.87890625 L -19890.61328125 -13504.8232421875 C -19890.611328125 -13504.7822265625 -19890.611328125 -13504.744140625 -19890.611328125 -13504.7080078125 L -19890.611328125 -13504.70703125 C -19890.60546875 -13504.4208984375 -19890.6015625 -13504.2607421875 -19890.6015625 -13504.2607421875 C -19890.6015625 -13504.2607421875 -19890.6015625 -13504.2607421875 -19890.6015625 -13504.2607421875 L -19890.02734375 -13504.267578125 L -19889.990234375 -13501.2685546875 L -19890.564453125 -13501.2607421875 L -19893.541015625 -13501.2236328125 Z M -19875.990234375 -13501.4453125 L -19876.029296875 -13504.4453125 C -19876.029296875 -13504.4453125 -19862.029296875 -13504.6220703125 -19862.029296875 -13504.6220703125 L -19861.9921875 -13501.6220703125 L -19875.990234375 -13501.4453125 Z M -19847.994140625 -13501.798828125 L -19848.03125 -13504.798828125 C -19848.03125 -13504.798828125 -19835.7578125 -13504.9541015625 -19835.7578125 -13504.9541015625 C -19835.740234375 -13504.9541015625 -19835.720703125 -13504.9541015625 -19835.703125 -13504.9541015625 C -19835.703125 -13504.9541015625 -19835.703125 -13504.9541015625 -19835.703125 -13504.9541015625 C -19835.697265625 -13504.9541015625 -19835.69140625 -13504.9541015625 -19835.685546875 -13504.9541015625 C -19835.685546875 -13504.9541015625 -19835.68359375 -13504.9541015625 -19835.681640625 -13504.9541015625 C -19835.677734375 -13504.9541015625 -19835.671875 -13504.9541015625 -19835.66796875 -13504.9541015625 C -19835.666015625 -13504.9541015625 -19835.666015625 -13504.9541015625 -19835.6640625 -13504.9541015625 C -19835.658203125 -13504.9541015625 -19835.654296875 -13504.9541015625 -19835.6484375 -13504.9541015625 C -19835.646484375 -13504.9541015625 -19835.64453125 -13504.9541015625 -19835.64453125 -13504.9541015625 C -19835.638671875 -13504.9541015625 -19835.634765625 -13504.9541015625 -19835.630859375 -13504.9541015625 C -19835.62890625 -13504.9541015625 -19835.626953125 -13504.9541015625 -19835.626953125 -13504.9541015625 C -19835.62109375 -13504.9541015625 -19835.615234375 -13504.9541015625 -19835.609375 -13504.953125 C -19835.609375 -13504.953125 -19835.607421875 -13504.953125 -19835.607421875 -13504.953125 C -19835.6015625 -13504.953125 -19835.59765625 -13504.953125 -19835.59375 -13504.953125 C -19835.591796875 -13504.953125 -19835.58984375 -13504.953125 -19835.587890625 -13504.953125 C -19835.583984375 -13504.953125 -19835.578125 -13504.953125 -19835.57421875 -13504.9521484375 C -19835.572265625 -13504.9521484375 -19835.572265625 -13504.9521484375 -19835.572265625 -13504.9521484375 C -19835.56640625 -13504.9521484375 -19835.560546875 -13504.9521484375 -19835.5546875 -13504.9521484375 C -19835.552734375 -13504.9521484375 -19835.55078125 -13504.9521484375 -19835.548828125 -13504.9521484375 C -19835.544921875 -13504.951171875 -19835.541015625 -13504.951171875 -19835.537109375 -13504.951171875 C -19835.537109375 -13504.951171875 -19835.53515625 -13504.951171875 -19835.533203125 -13504.951171875 C -19835.52734375 -13504.951171875 -19835.521484375 -13504.9501953125 -19835.517578125 -13504.9501953125 C -19835.515625 -13504.9501953125 -19835.513671875 -13504.9501953125 -19835.51171875 -13504.9501953125 C -19835.5078125 -13504.9501953125 -19835.50390625 -13504.9501953125 -19835.5 -13504.94921875 C -19835.498046875 -13504.94921875 -19835.49609375 -13504.94921875 -19835.494140625 -13504.94921875 C -19835.490234375 -13504.94921875 -19835.484375 -13504.94921875 -19835.48046875 -13504.9482421875 C -19835.478515625 -13504.9482421875 -19835.4765625 -13504.9482421875 -19835.474609375 -13504.9482421875 C -19835.470703125 -13504.9482421875 -19835.466796875 -13504.9482421875 -19835.462890625 -13504.947265625 C -19835.4609375 -13504.947265625 -19835.458984375 -13504.947265625 -19835.45703125 -13504.947265625 C -19835.453125 -13504.947265625 -19835.44921875 -13504.947265625 -19835.4453125 -13504.9462890625 C -19835.443359375 -13504.9462890625 -19835.44140625 -13504.9462890625 -19835.4375 -13504.9462890625 C -19835.43359375 -13504.9462890625 -19835.4296875 -13504.9453125 -19835.42578125 -13504.9453125 C -19835.423828125 -13504.9453125 -19835.419921875 -13504.9453125 -19835.41796875 -13504.9453125 C -19835.4140625 -13504.9443359375 -19835.412109375 -13504.9443359375 -19835.41015625 -13504.9443359375 C -19835.40625 -13504.9443359375 -19835.404296875 -13504.9443359375 -19835.400390625 -13504.943359375 C -19835.396484375 -13504.943359375 -19835.392578125 -13504.943359375 -19835.38671875 -13504.9423828125 C -19835.384765625 -13504.9423828125 -19835.3828125 -13504.9423828125 -19835.37890625 -13504.9423828125 C -19835.376953125 -13504.94140625 -19835.375 -13504.94140625 -19835.37109375 -13504.94140625 C -19835.369140625 -13504.94140625 -19835.365234375 -13504.94140625 -19835.36328125 -13504.9404296875 C -19835.361328125 -13504.9404296875 -19835.357421875 -13504.9404296875 -19835.35546875 -13504.9404296875 C -19835.3515625 -13504.939453125 -19835.345703125 -13504.939453125 -19835.33984375 -13504.9384765625 C -19835.337890625 -13504.9384765625 -19835.3359375 -13504.9384765625 -19835.333984375 -13504.9384765625 C -19835.330078125 -13504.9384765625 -19835.328125 -13504.9375 -19835.32421875 -13504.9375 C -19835.322265625 -13504.9375 -19835.3203125 -13504.9375 -19835.318359375 -13504.9365234375 C -19835.3125 -13504.9365234375 -19835.306640625 -13504.935546875 -19835.302734375 -13504.935546875 C -19835.30078125 -13504.935546875 -19835.298828125 -13504.9345703125 -19835.296875 -13504.9345703125 C -19835.29296875 -13504.9345703125 -19835.2890625 -13504.9345703125 -19835.287109375 -13504.93359375 C -19835.28515625 -13504.93359375 -19835.283203125 -13504.93359375 -19835.28125 -13504.93359375 C -19835.26953125 -13504.9326171875 -19835.2578125 -13504.9306640625 -19835.24609375 -13504.9296875 C -19835.24609375 -13504.9296875 -19835.244140625 -13504.9296875 -19835.244140625 -13504.9296875 C -19835.240234375 -13504.9287109375 -19835.236328125 -13504.9287109375 -19835.232421875 -13504.927734375 C -19835.232421875 -13504.927734375 -19835.23046875 -13504.927734375 -19835.23046875 -13504.927734375 C -19835.21875 -13504.9267578125 -19835.205078125 -13504.9248046875 -19835.193359375 -13504.923828125 C -19835.193359375 -13504.923828125 -19835.193359375 -13504.923828125 -19835.19140625 -13504.923828125 C -19835.1796875 -13504.921875 -19835.166015625 -13504.919921875 -19835.154296875 -13504.9189453125 C -19835.154296875 -13504.9189453125 -19835.154296875 -13504.9189453125 -19835.154296875 -13504.9189453125 C -19834.783203125 -13504.8701171875 -19834.423828125 -13504.7724609375 -19834.07421875 -13504.630859375 L -19835.203125 -13501.8515625 C -19835.375 -13501.9208984375 -19835.537109375 -13501.9541015625 -19835.703125 -13501.9541015625 L -19835.720703125 -13501.9541015625 L -19847.994140625 -13501.798828125 Z M -19832.396484375 -13478.1748046875 L -19832.6640625 -13492.171875 L -19829.6640625 -13492.2294921875 L -19829.396484375 -13478.2314453125 L -19832.396484375 -13478.1748046875 Z M -19831.861328125 -13450.1796875 L -19832.12890625 -13464.1767578125 L -19829.12890625 -13464.234375 L -19828.86328125 -13450.236328125 L -19831.861328125 -13450.1796875 Z M -19831.328125 -13422.1845703125 L -19831.595703125 -13436.181640625 L -19828.595703125 -13436.2392578125 L -19828.328125 -13422.2421875 L -19831.328125 -13422.1845703125 Z M -19830.794921875 -13394.189453125 L -19831.060546875 -13408.1875 L -19828.0625 -13408.244140625 C -19828.0625 -13408.244140625 -19827.794921875 -13394.2470703125 -19827.794921875 -13394.2470703125 L -19830.794921875 -13394.189453125 Z M -19830.259765625 -13366.1953125 L -19830.52734375 -13380.1923828125 L -19827.52734375 -13380.2490234375 C -19827.52734375 -13380.2490234375 -19827.26171875 -13366.251953125 -19827.26171875 -13366.251953125 L -19830.259765625 -13366.1953125 Z M -19829.7265625 -13338.2001953125 L -19829.994140625 -13352.197265625 L -19826.994140625 -13352.2548828125 C -19826.994140625 -13352.2548828125 -19826.7265625 -13338.2568359375 -19826.7265625 -13338.2568359375 L -19829.7265625 -13338.2001953125 Z M -19829.19140625 -13310.205078125 L -19829.458984375 -13324.2021484375 L -19826.458984375 -13324.259765625 L -19826.193359375 -13310.2626953125 L -19829.19140625 -13310.205078125 Z M -19828.658203125 -13282.2099609375 L -19828.92578125 -13296.2080078125 L -19825.92578125 -13296.2646484375 L -19825.658203125 -13282.267578125 L -19828.658203125 -13282.2099609375 Z M -19839.08203125 -13264.880859375 L -19839.119140625 -13267.8798828125 L -19831.21484375 -13267.98046875 C -19830.51953125 -13267.98828125 -19829.75 -13268.6689453125 -19829.2109375 -13269.7578125 L -19826.5234375 -13268.4248046875 C -19827.474609375 -13266.5048828125 -19829.00390625 -13265.2001953125 -19830.76953125 -13265.005859375 C -19830.76953125 -13265.005859375 -19830.76953125 -13265.005859375 -19830.76953125 -13265.005859375 C -19830.78125 -13265.00390625 -19830.79296875 -13265.0029296875 -19830.806640625 -13265.0009765625 C -19830.806640625 -13265.0009765625 -19830.806640625 -13265.0009765625 -19830.806640625 -13265.0009765625 C -19830.82421875 -13265 -19830.84375 -13264.998046875 -19830.861328125 -13264.99609375 C -19830.861328125 -13264.99609375 -19830.861328125 -13264.99609375 -19830.861328125 -13264.99609375 C -19830.869140625 -13264.99609375 -19830.875 -13264.9951171875 -19830.880859375 -13264.994140625 C -19830.880859375 -13264.994140625 -19830.880859375 -13264.994140625 -19830.880859375 -13264.994140625 C -19830.892578125 -13264.9931640625 -19830.90625 -13264.9921875 -19830.91796875 -13264.9912109375 C -19830.91796875 -13264.9912109375 -19830.91796875 -13264.9912109375 -19830.91796875 -13264.9912109375 C -19830.923828125 -13264.9912109375 -19830.9296875 -13264.9912109375 -19830.935546875 -13264.990234375 C -19830.9375 -13264.990234375 -19830.9375 -13264.990234375 -19830.9375 -13264.990234375 C -19830.94921875 -13264.9892578125 -19830.9609375 -13264.98828125 -19830.97265625 -13264.98828125 C -19830.974609375 -13264.98828125 -19830.974609375 -13264.98828125 -19830.974609375 -13264.98828125 C -19830.98046875 -13264.9873046875 -19830.986328125 -13264.9873046875 -19830.9921875 -13264.986328125 C -19830.9921875 -13264.986328125 -19830.994140625 -13264.986328125 -19830.994140625 -13264.986328125 C -19831.005859375 -13264.986328125 -19831.017578125 -13264.9853515625 -19831.029296875 -13264.9853515625 C -19831.029296875 -13264.984375 -19831.03125 -13264.984375 -19831.03125 -13264.984375 C -19831.037109375 -13264.984375 -19831.04296875 -13264.984375 -19831.048828125 -13264.984375 C -19831.048828125 -13264.984375 -19831.05078125 -13264.984375 -19831.05078125 -13264.984375 C -19831.0625 -13264.9833984375 -19831.07421875 -13264.9833984375 -19831.0859375 -13264.982421875 C -19831.0859375 -13264.982421875 -19831.087890625 -13264.982421875 -19831.087890625 -13264.982421875 C -19831.09375 -13264.982421875 -19831.099609375 -13264.982421875 -19831.10546875 -13264.982421875 C -19831.10546875 -13264.982421875 -19831.107421875 -13264.982421875 -19831.107421875 -13264.9814453125 C -19831.119140625 -13264.9814453125 -19831.130859375 -13264.9814453125 -19831.142578125 -13264.9814453125 C -19831.142578125 -13264.9814453125 -19831.14453125 -13264.9814453125 -19831.14453125 -13264.9814453125 C -19831.150390625 -13264.98046875 -19831.15625 -13264.98046875 -19831.162109375 -13264.98046875 C -19831.162109375 -13264.98046875 -19831.1640625 -13264.98046875 -19831.1640625 -13264.98046875 C -19831.169921875 -13264.98046875 -19831.17578125 -13264.98046875 -19831.181640625 -13264.98046875 L -19831.181640625 -13264.98046875 C -19831.181640625 -13264.98046875 -19839.08203125 -13264.880859375 -19839.08203125 -13264.880859375 Z M -19867.080078125 -13264.5263671875 L -19867.1171875 -13267.5263671875 L -19853.119140625 -13267.703125 L -19853.080078125 -13264.703125 L -19867.080078125 -13264.5263671875 Z M -19895.076171875 -13264.171875 L -19895.115234375 -13267.171875 L -19881.115234375 -13267.3486328125 L -19881.078125 -13264.349609375 C -19881.078125 -13264.349609375 -19895.076171875 -13264.171875 -19895.076171875 -13264.171875 Z M -19923.07421875 -13263.818359375 L -19923.11328125 -13266.8173828125 L -19909.11328125 -13266.9951171875 L -19909.076171875 -13263.9951171875 L -19913.591796875 -13263.9384765625 C -19917.681640625 -13263.88671875 -19923.07421875 -13263.818359375 -19923.07421875 -13263.818359375 Z M -19951.072265625 -13263.4638671875 L -19951.111328125 -13266.4638671875 L -19937.111328125 -13266.640625 L -19937.07421875 -13263.640625 C -19937.07421875 -13263.640625 -19941.380859375 -13263.5869140625 -19945.21484375 -13263.5380859375 L -19945.216796875 -13263.5380859375 C -19945.244140625 -13263.5380859375 -19945.26953125 -13263.537109375 -19945.296875 -13263.537109375 L -19945.30078125 -13263.537109375 C -19945.3203125 -13263.537109375 -19945.33984375 -13263.5361328125 -19945.361328125 -13263.5361328125 L -19945.39453125 -13263.5361328125 C -19945.400390625 -13263.5361328125 -19945.40625 -13263.53515625 -19945.41015625 -13263.53515625 L -19945.427734375 -13263.53515625 C -19945.43359375 -13263.53515625 -19945.439453125 -13263.53515625 -19945.4453125 -13263.53515625 L -19945.478515625 -13263.53515625 C -19945.48046875 -13263.53515625 -19945.482421875 -13263.5341796875 -19945.486328125 -13263.5341796875 L -19945.5078125 -13263.5341796875 C -19945.51171875 -13263.5341796875 -19945.517578125 -13263.5341796875 -19945.5234375 -13263.5341796875 L -19945.55859375 -13263.533203125 C -19945.560546875 -13263.533203125 -19945.560546875 -13263.533203125 -19945.560546875 -13263.533203125 L -19951.072265625 -13263.4638671875 Z M -19979.0703125 -13263.109375 L -19979.107421875 -13266.109375 L -19965.109375 -13266.287109375 L -19965.072265625 -13263.287109375 L -19973.232421875 -13263.18359375 C -19973.23828125 -13263.18359375 -19973.2421875 -13263.18359375 -19973.24609375 -13263.18359375 L -19973.2578125 -13263.18359375 C -19973.267578125 -13263.18359375 -19973.27734375 -13263.1826171875 -19973.287109375 -13263.1826171875 L -19973.31640625 -13263.1826171875 C -19973.33203125 -13263.1826171875 -19973.349609375 -13263.1826171875 -19973.365234375 -13263.181640625 L -19973.3828125 -13263.181640625 C -19976.39453125 -13263.1435546875 -19979.0703125 -13263.109375 -19979.0703125 -13263.109375 Z M -19997.998046875 -13262.87109375 C -19998.44921875 -13262.87109375 -19998.890625 -13262.943359375 -19999.31640625 -13263.08203125 L -19999.31640625 -13263.08203125 C -19999.31640625 -13263.08203125 -19999.32421875 -13263.08203125 -19999.337890625 -13263.08203125 L -19999.337890625 -13263.08203125 C -19999.345703125 -13263.08203125 -19999.35546875 -13263.0810546875 -19999.365234375 -13263.0810546875 L -19999.3671875 -13263.0810546875 C -19999.37109375 -13263.0810546875 -19999.376953125 -13263.0810546875 -19999.3828125 -13263.0810546875 L -19999.3828125 -13263.0810546875 C -19999.388671875 -13263.0810546875 -19999.39453125 -13263.0810546875 -19999.3984375 -13263.0810546875 L -19999.404296875 -13263.0810546875 C -19999.41015625 -13263.0810546875 -19999.416015625 -13263.0810546875 -19999.423828125 -13263.080078125 L -19999.427734375 -13263.080078125 C -19999.43359375 -13263.080078125 -19999.44140625 -13263.080078125 -19999.447265625 -13263.080078125 L -19999.48046875 -13263.080078125 C -19999.484375 -13263.080078125 -19999.486328125 -13263.080078125 -19999.490234375 -13263.0791015625 L -19999.494140625 -13263.0791015625 C -19999.49609375 -13263.0791015625 -19999.49609375 -13263.0791015625 -19999.498046875 -13263.0791015625 L -20007.044921875 -13262.9716796875 L -20007.087890625 -13265.9716796875 L -19999.359375 -13266.08203125 L -19998.861328125 -13266.0888671875 L -19998.388671875 -13265.9345703125 C -19998.255859375 -13265.8916015625 -19998.12890625 -13265.87109375 -19997.998046875 -13265.87109375 L -19997.984375 -13265.87109375 L -19993.107421875 -13265.9326171875 L -19993.068359375 -13262.9326171875 L -19993.091796875 -13262.9326171875 C -19993.091796875 -13262.9326171875 -19993.09375 -13262.9326171875 -19993.09375 -13262.9326171875 L -19993.103515625 -13262.9326171875 C -19993.103515625 -13262.9326171875 -19993.103515625 -13262.9326171875 -19993.10546875 -13262.9326171875 L -19993.134765625 -13262.931640625 C -19993.134765625 -13262.931640625 -19993.134765625 -13262.931640625 -19993.134765625 -13262.931640625 L -19993.140625 -13262.931640625 C -19993.142578125 -13262.931640625 -19993.14453125 -13262.931640625 -19993.14453125 -13262.931640625 L -19993.146484375 -13262.931640625 C -19993.1484375 -13262.931640625 -19993.150390625 -13262.931640625 -19993.15234375 -13262.931640625 L -19993.15625 -13262.931640625 C -19993.15625 -13262.931640625 -19993.158203125 -13262.931640625 -19993.158203125 -13262.931640625 L -19993.1640625 -13262.931640625 C -19993.1640625 -13262.931640625 -19993.166015625 -13262.931640625 -19993.166015625 -13262.931640625 L -19993.1953125 -13262.9306640625 C -19993.19921875 -13262.9306640625 -19993.205078125 -13262.9306640625 -19993.208984375 -13262.9306640625 L -19993.2109375 -13262.9306640625 C -19993.212890625 -13262.9306640625 -19993.212890625 -13262.9306640625 -19993.21484375 -13262.9306640625 L -19993.21484375 -13262.9306640625 C -19993.21875 -13262.9306640625 -19993.22265625 -13262.9306640625 -19993.2265625 -13262.9306640625 L -19993.306640625 -13262.9296875 C -19993.30859375 -13262.9296875 -19993.30859375 -13262.9296875 -19993.30859375 -13262.9296875 L -19993.314453125 -13262.9296875 C -19993.314453125 -13262.9296875 -19993.314453125 -13262.9296875 -19993.314453125 -13262.9296875 L -19993.318359375 -13262.9296875 C -19993.3203125 -13262.9296875 -19993.322265625 -13262.9296875 -19993.32421875 -13262.9296875 L -19993.333984375 -13262.9296875 C -19993.341796875 -13262.9296875 -19993.34765625 -13262.9296875 -19993.35546875 -13262.9287109375 L -19993.36328125 -13262.9287109375 C -19993.369140625 -13262.9287109375 -19993.375 -13262.9287109375 -19993.380859375 -13262.9287109375 L -19993.3984375 -13262.9287109375 C -19993.400390625 -13262.9287109375 -19993.400390625 -13262.9287109375 -19993.40234375 -13262.9287109375 L -19993.40625 -13262.9287109375 C -19993.408203125 -13262.9287109375 -19993.41015625 -13262.9287109375 -19993.412109375 -13262.9287109375 L -19993.421875 -13262.9287109375 C -19993.42578125 -13262.9287109375 -19993.427734375 -13262.927734375 -19993.431640625 -13262.927734375 L -19993.431640625 -13262.927734375 C -19993.435546875 -13262.927734375 -19993.439453125 -13262.927734375 -19993.443359375 -13262.927734375 L -19993.462890625 -13262.927734375 C -19993.462890625 -13262.927734375 -19993.46484375 -13262.927734375 -19993.46484375 -13262.927734375 L -19993.55859375 -13262.9267578125 C -19993.55859375 -13262.9267578125 -19993.560546875 -13262.9267578125 -19993.560546875 -13262.9267578125 L -19993.59765625 -13262.92578125 C -19993.607421875 -13262.92578125 -19993.6171875 -13262.92578125 -19993.625 -13262.92578125 L -19993.630859375 -13262.92578125 C -19993.634765625 -13262.92578125 -19993.638671875 -13262.92578125 -19993.640625 -13262.92578125 L -19993.69140625 -13262.9248046875 C -19993.69140625 -13262.9248046875 -19993.693359375 -13262.9248046875 -19993.693359375 -13262.9248046875 L -19993.857421875 -13262.9228515625 C -19993.857421875 -13262.9228515625 -19993.859375 -13262.9228515625 -19993.861328125 -13262.9228515625 L -19993.88671875 -13262.9228515625 C -19993.888671875 -13262.921875 -19993.892578125 -13262.921875 -19993.896484375 -13262.921875 L -19993.96875 -13262.9208984375 C -19993.970703125 -13262.9208984375 -19993.970703125 -13262.9208984375 -19993.97265625 -13262.9208984375 L -19993.9765625 -13262.9208984375 C -19993.98046875 -13262.9208984375 -19993.982421875 -13262.9208984375 -19993.986328125 -13262.9208984375 L -19994.001953125 -13262.9208984375 C -19994.001953125 -13262.9208984375 -19994.00390625 -13262.9208984375 -19994.00390625 -13262.9208984375 L -19994.025390625 -13262.9208984375 C -19994.02734375 -13262.9208984375 -19994.02734375 -13262.9208984375 -19994.029296875 -13262.9208984375 L -19994.046875 -13262.919921875 C -19994.048828125 -13262.919921875 -19994.05078125 -13262.919921875 -19994.05078125 -13262.919921875 L -19994.0703125 -13262.919921875 C -19994.080078125 -13262.919921875 -19994.08984375 -13262.919921875 -19994.1015625 -13262.919921875 L -19994.107421875 -13262.919921875 C -19994.12109375 -13262.9189453125 -19994.134765625 -13262.9189453125 -19994.1484375 -13262.9189453125 L -19994.15625 -13262.9189453125 C -19994.158203125 -13262.9189453125 -19994.162109375 -13262.9189453125 -19994.1640625 -13262.9189453125 L -19994.1640625 -13262.9189453125 C -19994.169921875 -13262.9189453125 -19994.173828125 -13262.9189453125 -19994.1796875 -13262.9189453125 L -19994.19140625 -13262.9189453125 C -19994.193359375 -13262.9189453125 -19994.193359375 -13262.9189453125 -19994.1953125 -13262.9189453125 L -19994.21484375 -13262.91796875 C -19994.21875 -13262.91796875 -19994.22265625 -13262.91796875 -19994.224609375 -13262.91796875 L -19994.2265625 -13262.91796875 C -19994.23046875 -13262.91796875 -19994.234375 -13262.91796875 -19994.236328125 -13262.91796875 L -19994.263671875 -13262.91796875 C -19994.267578125 -13262.91796875 -19994.271484375 -13262.91796875 -19994.275390625 -13262.91796875 L -19994.318359375 -13262.9169921875 C -19994.328125 -13262.9169921875 -19994.337890625 -13262.9169921875 -19994.34765625 -13262.9169921875 L -19994.35546875 -13262.916015625 C -19994.361328125 -13262.916015625 -19994.3671875 -13262.916015625 -19994.375 -13262.916015625 L -19994.376953125 -13262.916015625 C -19994.380859375 -13262.916015625 -19994.384765625 -13262.916015625 -19994.38671875 -13262.916015625 L -19994.39453125 -13262.916015625 C -19994.39453125 -13262.916015625 -19994.396484375 -13262.916015625 -19994.396484375 -13262.916015625 L -19994.40625 -13262.916015625 C -19994.408203125 -13262.916015625 -19994.412109375 -13262.916015625 -19994.4140625 -13262.916015625 L -19994.41796875 -13262.916015625 C -19994.4296875 -13262.916015625 -19994.44140625 -13262.9150390625 -19994.453125 -13262.9150390625 L -19994.455078125 -13262.9150390625 C -19994.462890625 -13262.9150390625 -19994.470703125 -13262.9150390625 -19994.48046875 -13262.9150390625 L -19994.482421875 -13262.9150390625 C -19994.484375 -13262.9150390625 -19994.486328125 -13262.9150390625 -19994.48828125 -13262.9150390625 L -19994.521484375 -13262.9140625 C -19994.53125 -13262.9140625 -19994.541015625 -13262.9140625 -19994.548828125 -13262.9140625 L -19994.630859375 -13262.9130859375 C -19994.6328125 -13262.9130859375 -19994.634765625 -13262.9130859375 -19994.634765625 -13262.9130859375 L -19994.642578125 -13262.9130859375 C -19994.646484375 -13262.9130859375 -19994.650390625 -13262.9130859375 -19994.65625 -13262.9130859375 L -19994.681640625 -13262.912109375 C -19994.689453125 -13262.912109375 -19994.69921875 -13262.912109375 -19994.70703125 -13262.912109375 L -19994.70703125 -13262.912109375 C -19994.7109375 -13262.912109375 -19994.71484375 -13262.912109375 -19994.716796875 -13262.912109375 L -19994.724609375 -13262.912109375 C -19994.7578125 -13262.9111328125 -19994.79296875 -13262.9111328125 -19994.828125 -13262.91015625 L -19994.833984375 -13262.91015625 C -19994.849609375 -13262.91015625 -19994.86328125 -13262.91015625 -19994.87890625 -13262.91015625 L -19994.892578125 -13262.91015625 C -19994.892578125 -13262.9091796875 -19994.89453125 -13262.9091796875 -19994.89453125 -13262.9091796875 L -19994.91796875 -13262.9091796875 C -19994.923828125 -13262.9091796875 -19994.9296875 -13262.9091796875 -19994.9375 -13262.9091796875 L -19994.953125 -13262.9091796875 C -19994.95703125 -13262.9091796875 -19994.962890625 -13262.9091796875 -19994.96875 -13262.9091796875 L -19994.970703125 -13262.908203125 C -19994.974609375 -13262.908203125 -19994.9765625 -13262.908203125 -19994.98046875 -13262.908203125 L -19994.98828125 -13262.908203125 C -19994.990234375 -13262.908203125 -19994.990234375 -13262.908203125 -19994.990234375 -13262.908203125 L -19995.001953125 -13262.908203125 C -19995.00390625 -13262.908203125 -19995.005859375 -13262.908203125 -19995.009765625 -13262.908203125 L -19995.099609375 -13262.9072265625 C -19995.1015625 -13262.9072265625 -19995.103515625 -13262.9072265625 -19995.10546875 -13262.9072265625 L -19995.111328125 -13262.9072265625 C -19995.12890625 -13262.90625 -19995.146484375 -13262.90625 -19995.1640625 -13262.90625 L -19995.16796875 -13262.90625 C -19995.171875 -13262.90625 -19995.17578125 -13262.90625 -19995.177734375 -13262.90625 L -19995.181640625 -13262.90625 C -19995.185546875 -13262.90625 -19995.189453125 -13262.90625 -19995.193359375 -13262.90625 L -19995.1953125 -13262.90625 C -19995.205078125 -13262.9052734375 -19995.21484375 -13262.9052734375 -19995.22265625 -13262.9052734375 L -19995.22265625 -13262.9052734375 C -19995.23046875 -13262.9052734375 -19995.23828125 -13262.9052734375 -19995.24609375 -13262.9052734375 L -19995.25390625 -13262.9052734375 C -19995.2578125 -13262.9052734375 -19995.26171875 -13262.9052734375 -19995.265625 -13262.9052734375 L -19995.283203125 -13262.904296875 C -19995.29296875 -13262.904296875 -19995.302734375 -13262.904296875 -19995.314453125 -13262.904296875 L -19995.439453125 -13262.90234375 C -19995.44140625 -13262.90234375 -19995.443359375 -13262.90234375 -19995.4453125 -13262.90234375 L -19995.482421875 -13262.90234375 C -19995.490234375 -13262.90234375 -19995.49609375 -13262.90234375 -19995.50390625 -13262.90234375 L -19995.5390625 -13262.9013671875 C -19995.546875 -13262.9013671875 -19995.5546875 -13262.9013671875 -19995.5625 -13262.9013671875 L -19995.58203125 -13262.9013671875 C -19995.595703125 -13262.900390625 -19995.607421875 -13262.900390625 -19995.619140625 -13262.900390625 L -19995.681640625 -13262.8994140625 C -19995.6953125 -13262.8994140625 -19995.70703125 -13262.8994140625 -19995.71875 -13262.8994140625 L -19995.740234375 -13262.8994140625 C -19995.7578125 -13262.8984375 -19995.7734375 -13262.8984375 -19995.791015625 -13262.8984375 L -19995.794921875 -13262.8984375 C -19995.849609375 -13262.8974609375 -19995.90625 -13262.896484375 -19995.9609375 -13262.896484375 L -19995.96484375 -13262.896484375 C -19996.11328125 -13262.89453125 -19996.259765625 -13262.892578125 -19996.400390625 -13262.890625 L -19996.4140625 -13262.890625 C -19996.552734375 -13262.888671875 -19996.6875 -13262.88671875 -19996.81640625 -13262.8857421875 L -19996.81640625 -13262.8857421875 C -19996.947265625 -13262.8837890625 -19997.0703125 -13262.8818359375 -19997.18359375 -13262.880859375 L -19997.185546875 -13262.880859375 C -19997.4140625 -13262.8779296875 -19997.603515625 -13262.875 -19997.73828125 -13262.8740234375 L -19997.73828125 -13262.8740234375 C -19997.87109375 -13262.8720703125 -19997.947265625 -13262.87109375 -19997.947265625 -13262.87109375 L -19997.947265625 -13262.87109375 C -19997.96484375 -13262.87109375 -19997.982421875 -13262.87109375 -19997.998046875 -13262.87109375 Z M -20035.04296875 -13262.5732421875 L -20035.0859375 -13265.572265625 L -20021.087890625 -13265.7724609375 L -20021.044921875 -13262.7724609375 L -20035.04296875 -13262.5732421875 Z M -20063.0390625 -13262.173828125 L -20063.08203125 -13265.173828125 L -20049.083984375 -13265.373046875 L -20049.041015625 -13262.373046875 L -20063.0390625 -13262.173828125 Z M -20091.037109375 -13261.7744140625 L -20091.080078125 -13264.7744140625 L -20077.08203125 -13264.9736328125 L -20077.0390625 -13261.974609375 L -20091.037109375 -13261.7744140625 Z M -20119.03515625 -13261.3759765625 L -20119.076171875 -13264.3759765625 L -20105.078125 -13264.5751953125 L -20105.03515625 -13261.5751953125 L -20119.03515625 -13261.3759765625 Z M -20147.03125 -13260.9765625 L -20147.07421875 -13263.9765625 L -20133.076171875 -13264.17578125 L -20133.033203125 -13261.1767578125 L -20147.03125 -13260.9765625 Z M -20175.029296875 -13260.578125 L -20175.072265625 -13263.5771484375 L -20161.072265625 -13263.77734375 L -20161.029296875 -13260.77734375 L -20175.029296875 -13260.578125 Z M -20203.025390625 -13260.1787109375 L -20203.068359375 -13263.1787109375 L -20189.0703125 -13263.3779296875 L -20189.02734375 -13260.3779296875 L -20203.025390625 -13260.1787109375 Z" stroke="none" fill="#fff"/>
  </g>
</svg>
